# xmcd
# Copyright (C) 1995-1998 Ti Kan
#
# Track frame offsets:
#       150
#       18375
#       30689
#       48900
#       62325
#       81450
#       106838
#       134213
#       158999
#       188250
#       214575
#       243525
#       270150
#       284701
#
# Disc length: 3834 seconds
#
# Revision: 0
# Processed by: cddbd v1.4b42PL1 Copyright (c) Steve Scherf et al.
# Submitted via: CD-Transfer v1.0
#
DISCID=c00ef80e
DTITLE=Mittageisen - Alles Ist Anders... Nichts Hat Sich Geändert...
DYEAR=1998
DGENRE=
TTITLE0=Automaten
TTITLE1=Anfang
TTITLE2=Persistance Del La Mémoire
TTITLE3=Wir
TTITLE4=Traum
TTITLE5=Dunkelheit
TTITLE6=Erinnerung (Alles Ist Anders...)
TTITLE7=237 Tage
TTITLE8=Danach
TTITLE9=Unterwegs
TTITLE10=Automaten
TTITLE11=Neues China
TTITLE12=Beständigkeit Der Erinnerung
TTITLE13=
EXTD=
EXTT0=
EXTT1=
EXTT2=
EXTT3=
EXTT4=
EXTT5=
EXTT6=
EXTT7=
EXTT8=
EXTT9=
EXTT10=
EXTT11=
EXTT12=
EXTT13=
PLAYORDER=
